<mxfile host="app.diagrams.net" modified="2024-01-04T21:45:07.838Z" agent="Mozilla/5.0 (Windows NT 10.0; Win64; x64) AppleWebKit/537.36 (KHTML, like Gecko) Chrome/120.0.0.0 Safari/537.36" etag="d_1FP4oLXgbWkwOI5sq7" version="22.1.16" type="device">
  <diagram name="Page-1" id="zd_X_Lq5A4v0tlSuRFRz">
    <mxGraphModel dx="1257" dy="669" grid="1" gridSize="10" guides="1" tooltips="1" connect="1" arrows="1" fold="1" page="1" pageScale="1" pageWidth="850" pageHeight="1100" math="0" shadow="0">
      <root>
        <mxCell id="0" />
        <mxCell id="1" parent="0" />
        <mxCell id="wuJ78tZV3x-SH6WrtWx3-1" value="START" style="ellipse;whiteSpace=wrap;html=1;" vertex="1" parent="1">
          <mxGeometry x="365" y="30" width="120" height="80" as="geometry" />
        </mxCell>
        <mxCell id="wuJ78tZV3x-SH6WrtWx3-2" value="" style="endArrow=classic;html=1;rounded=0;" edge="1" parent="1">
          <mxGeometry width="50" height="50" relative="1" as="geometry">
            <mxPoint x="424" y="110" as="sourcePoint" />
            <mxPoint x="424" y="180" as="targetPoint" />
          </mxGeometry>
        </mxCell>
        <mxCell id="wuJ78tZV3x-SH6WrtWx3-3" value="Display the story" style="rounded=0;whiteSpace=wrap;html=1;" vertex="1" parent="1">
          <mxGeometry x="365" y="180" width="120" height="60" as="geometry" />
        </mxCell>
        <mxCell id="wuJ78tZV3x-SH6WrtWx3-4" value="" style="endArrow=classic;html=1;rounded=0;" edge="1" parent="1">
          <mxGeometry width="50" height="50" relative="1" as="geometry">
            <mxPoint x="424" y="240" as="sourcePoint" />
            <mxPoint x="424" y="310" as="targetPoint" />
          </mxGeometry>
        </mxCell>
        <mxCell id="wuJ78tZV3x-SH6WrtWx3-6" value="" style="endArrow=classic;html=1;rounded=0;" edge="1" parent="1">
          <mxGeometry width="50" height="50" relative="1" as="geometry">
            <mxPoint x="424" y="370" as="sourcePoint" />
            <mxPoint x="424" y="450" as="targetPoint" />
          </mxGeometry>
        </mxCell>
        <mxCell id="wuJ78tZV3x-SH6WrtWx3-8" value="Input your Name" style="shape=parallelogram;perimeter=parallelogramPerimeter;whiteSpace=wrap;html=1;fixedSize=1;" vertex="1" parent="1">
          <mxGeometry x="365" y="310" width="120" height="60" as="geometry" />
        </mxCell>
        <mxCell id="wuJ78tZV3x-SH6WrtWx3-9" value="You have been attacked by Pixies!" style="rounded=0;whiteSpace=wrap;html=1;" vertex="1" parent="1">
          <mxGeometry x="365" y="450" width="120" height="60" as="geometry" />
        </mxCell>
        <mxCell id="wuJ78tZV3x-SH6WrtWx3-12" value="" style="endArrow=classic;html=1;rounded=0;" edge="1" parent="1">
          <mxGeometry width="50" height="50" relative="1" as="geometry">
            <mxPoint x="425" y="510" as="sourcePoint" />
            <mxPoint x="425" y="590" as="targetPoint" />
          </mxGeometry>
        </mxCell>
        <mxCell id="wuJ78tZV3x-SH6WrtWx3-18" value="ignore or attack?" style="rhombus;whiteSpace=wrap;html=1;" vertex="1" parent="1">
          <mxGeometry x="355" y="590" width="140" height="80" as="geometry" />
        </mxCell>
        <mxCell id="wuJ78tZV3x-SH6WrtWx3-19" value="" style="endArrow=none;html=1;rounded=0;" edge="1" parent="1">
          <mxGeometry width="50" height="50" relative="1" as="geometry">
            <mxPoint x="280" y="630" as="sourcePoint" />
            <mxPoint x="355" y="630" as="targetPoint" />
          </mxGeometry>
        </mxCell>
        <mxCell id="wuJ78tZV3x-SH6WrtWx3-20" value="" style="endArrow=classic;html=1;rounded=0;" edge="1" parent="1">
          <mxGeometry width="50" height="50" relative="1" as="geometry">
            <mxPoint x="280" y="630" as="sourcePoint" />
            <mxPoint x="280" y="710" as="targetPoint" />
          </mxGeometry>
        </mxCell>
        <mxCell id="wuJ78tZV3x-SH6WrtWx3-23" value="if ignore" style="edgeLabel;html=1;align=center;verticalAlign=middle;resizable=0;points=[];" vertex="1" connectable="0" parent="wuJ78tZV3x-SH6WrtWx3-20">
          <mxGeometry x="-0.025" y="1" relative="1" as="geometry">
            <mxPoint as="offset" />
          </mxGeometry>
        </mxCell>
        <mxCell id="wuJ78tZV3x-SH6WrtWx3-21" value="" style="endArrow=none;html=1;rounded=0;" edge="1" parent="1">
          <mxGeometry width="50" height="50" relative="1" as="geometry">
            <mxPoint x="495" y="629.5" as="sourcePoint" />
            <mxPoint x="570" y="629.5" as="targetPoint" />
          </mxGeometry>
        </mxCell>
        <mxCell id="wuJ78tZV3x-SH6WrtWx3-22" value="" style="endArrow=classic;html=1;rounded=0;" edge="1" parent="1">
          <mxGeometry width="50" height="50" relative="1" as="geometry">
            <mxPoint x="570" y="630" as="sourcePoint" />
            <mxPoint x="570" y="710" as="targetPoint" />
          </mxGeometry>
        </mxCell>
        <mxCell id="wuJ78tZV3x-SH6WrtWx3-24" value="if attack" style="edgeLabel;html=1;align=center;verticalAlign=middle;resizable=0;points=[];" vertex="1" connectable="0" parent="wuJ78tZV3x-SH6WrtWx3-22">
          <mxGeometry x="-0.025" y="1" relative="1" as="geometry">
            <mxPoint as="offset" />
          </mxGeometry>
        </mxCell>
        <mxCell id="wuJ78tZV3x-SH6WrtWx3-25" value="You avoid pixies and proceed." style="rounded=0;whiteSpace=wrap;html=1;" vertex="1" parent="1">
          <mxGeometry x="220" y="710" width="120" height="60" as="geometry" />
        </mxCell>
        <mxCell id="wuJ78tZV3x-SH6WrtWx3-26" value="You defeat pixies and gain experience." style="rounded=0;whiteSpace=wrap;html=1;" vertex="1" parent="1">
          <mxGeometry x="520" y="710" width="120" height="60" as="geometry" />
        </mxCell>
        <mxCell id="wuJ78tZV3x-SH6WrtWx3-27" value="" style="endArrow=none;html=1;rounded=0;" edge="1" parent="1">
          <mxGeometry width="50" height="50" relative="1" as="geometry">
            <mxPoint x="280" y="800" as="sourcePoint" />
            <mxPoint x="280" y="770" as="targetPoint" />
          </mxGeometry>
        </mxCell>
        <mxCell id="wuJ78tZV3x-SH6WrtWx3-28" value="" style="endArrow=none;html=1;rounded=0;" edge="1" parent="1">
          <mxGeometry width="50" height="50" relative="1" as="geometry">
            <mxPoint x="570" y="800" as="sourcePoint" />
            <mxPoint x="570" y="770" as="targetPoint" />
          </mxGeometry>
        </mxCell>
        <mxCell id="wuJ78tZV3x-SH6WrtWx3-29" value="" style="endArrow=none;html=1;rounded=0;" edge="1" parent="1">
          <mxGeometry width="50" height="50" relative="1" as="geometry">
            <mxPoint x="280" y="800" as="sourcePoint" />
            <mxPoint x="570" y="800" as="targetPoint" />
          </mxGeometry>
        </mxCell>
        <mxCell id="wuJ78tZV3x-SH6WrtWx3-30" value="" style="endArrow=classic;html=1;rounded=0;" edge="1" parent="1">
          <mxGeometry width="50" height="50" relative="1" as="geometry">
            <mxPoint x="424" y="800" as="sourcePoint" />
            <mxPoint x="424" y="840" as="targetPoint" />
          </mxGeometry>
        </mxCell>
        <mxCell id="wuJ78tZV3x-SH6WrtWx3-31" value="You come across Elves." style="rounded=0;whiteSpace=wrap;html=1;" vertex="1" parent="1">
          <mxGeometry x="365" y="840" width="120" height="60" as="geometry" />
        </mxCell>
        <mxCell id="wuJ78tZV3x-SH6WrtWx3-32" value="" style="endArrow=classic;html=1;rounded=0;" edge="1" parent="1">
          <mxGeometry width="50" height="50" relative="1" as="geometry">
            <mxPoint x="424" y="900" as="sourcePoint" />
            <mxPoint x="424" y="960" as="targetPoint" />
          </mxGeometry>
        </mxCell>
        <mxCell id="wuJ78tZV3x-SH6WrtWx3-33" value="sneak or fight?" style="rhombus;whiteSpace=wrap;html=1;" vertex="1" parent="1">
          <mxGeometry x="355" y="960" width="140" height="80" as="geometry" />
        </mxCell>
        <mxCell id="wuJ78tZV3x-SH6WrtWx3-34" value="" style="endArrow=none;html=1;rounded=0;" edge="1" parent="1">
          <mxGeometry width="50" height="50" relative="1" as="geometry">
            <mxPoint x="495" y="999.5" as="sourcePoint" />
            <mxPoint x="570" y="999.5" as="targetPoint" />
          </mxGeometry>
        </mxCell>
        <mxCell id="wuJ78tZV3x-SH6WrtWx3-35" value="" style="endArrow=none;html=1;rounded=0;" edge="1" parent="1">
          <mxGeometry width="50" height="50" relative="1" as="geometry">
            <mxPoint x="280" y="999.5" as="sourcePoint" />
            <mxPoint x="355" y="999.5" as="targetPoint" />
          </mxGeometry>
        </mxCell>
        <mxCell id="wuJ78tZV3x-SH6WrtWx3-36" value="" style="endArrow=classic;html=1;rounded=0;" edge="1" parent="1">
          <mxGeometry width="50" height="50" relative="1" as="geometry">
            <mxPoint x="570" y="1000" as="sourcePoint" />
            <mxPoint x="570" y="1080" as="targetPoint" />
          </mxGeometry>
        </mxCell>
        <mxCell id="wuJ78tZV3x-SH6WrtWx3-37" value="if fight" style="edgeLabel;html=1;align=center;verticalAlign=middle;resizable=0;points=[];" vertex="1" connectable="0" parent="wuJ78tZV3x-SH6WrtWx3-36">
          <mxGeometry x="-0.025" y="1" relative="1" as="geometry">
            <mxPoint as="offset" />
          </mxGeometry>
        </mxCell>
        <mxCell id="wuJ78tZV3x-SH6WrtWx3-38" value="" style="endArrow=classic;html=1;rounded=0;" edge="1" parent="1">
          <mxGeometry width="50" height="50" relative="1" as="geometry">
            <mxPoint x="279.5" y="1000" as="sourcePoint" />
            <mxPoint x="279.5" y="1080" as="targetPoint" />
          </mxGeometry>
        </mxCell>
        <mxCell id="wuJ78tZV3x-SH6WrtWx3-39" value="if sneak" style="edgeLabel;html=1;align=center;verticalAlign=middle;resizable=0;points=[];" vertex="1" connectable="0" parent="wuJ78tZV3x-SH6WrtWx3-38">
          <mxGeometry x="-0.025" y="1" relative="1" as="geometry">
            <mxPoint as="offset" />
          </mxGeometry>
        </mxCell>
        <mxCell id="wuJ78tZV3x-SH6WrtWx3-40" value="You safely sneak past Elves." style="rounded=0;whiteSpace=wrap;html=1;" vertex="1" parent="1">
          <mxGeometry x="220" y="1080" width="120" height="60" as="geometry" />
        </mxCell>
        <mxCell id="wuJ78tZV3x-SH6WrtWx3-41" value="You engage in battle, Elves seem overpowered." style="rounded=0;whiteSpace=wrap;html=1;" vertex="1" parent="1">
          <mxGeometry x="510" y="1080" width="120" height="60" as="geometry" />
        </mxCell>
        <mxCell id="wuJ78tZV3x-SH6WrtWx3-42" value="" style="endArrow=none;html=1;rounded=0;" edge="1" parent="1">
          <mxGeometry width="50" height="50" relative="1" as="geometry">
            <mxPoint x="569.5" y="1200" as="sourcePoint" />
            <mxPoint x="569.5" y="1140" as="targetPoint" />
          </mxGeometry>
        </mxCell>
        <mxCell id="wuJ78tZV3x-SH6WrtWx3-43" value="" style="endArrow=none;html=1;rounded=0;" edge="1" parent="1">
          <mxGeometry width="50" height="50" relative="1" as="geometry">
            <mxPoint x="480" y="1200" as="sourcePoint" />
            <mxPoint x="840" y="1200" as="targetPoint" />
          </mxGeometry>
        </mxCell>
        <mxCell id="wuJ78tZV3x-SH6WrtWx3-44" value="" style="endArrow=classic;html=1;rounded=0;" edge="1" parent="1">
          <mxGeometry width="50" height="50" relative="1" as="geometry">
            <mxPoint x="480" y="1200" as="sourcePoint" />
            <mxPoint x="480" y="1250" as="targetPoint" />
          </mxGeometry>
        </mxCell>
        <mxCell id="wuJ78tZV3x-SH6WrtWx3-47" value="attack" style="edgeLabel;html=1;align=center;verticalAlign=middle;resizable=0;points=[];" vertex="1" connectable="0" parent="wuJ78tZV3x-SH6WrtWx3-44">
          <mxGeometry x="-0.12" relative="1" as="geometry">
            <mxPoint as="offset" />
          </mxGeometry>
        </mxCell>
        <mxCell id="wuJ78tZV3x-SH6WrtWx3-45" value="" style="endArrow=classic;html=1;rounded=0;" edge="1" parent="1">
          <mxGeometry width="50" height="50" relative="1" as="geometry">
            <mxPoint x="660" y="1200" as="sourcePoint" />
            <mxPoint x="660" y="1250" as="targetPoint" />
          </mxGeometry>
        </mxCell>
        <mxCell id="wuJ78tZV3x-SH6WrtWx3-48" value="block" style="edgeLabel;html=1;align=center;verticalAlign=middle;resizable=0;points=[];" vertex="1" connectable="0" parent="wuJ78tZV3x-SH6WrtWx3-45">
          <mxGeometry y="1" relative="1" as="geometry">
            <mxPoint as="offset" />
          </mxGeometry>
        </mxCell>
        <mxCell id="wuJ78tZV3x-SH6WrtWx3-46" value="" style="endArrow=classic;html=1;rounded=0;" edge="1" parent="1">
          <mxGeometry width="50" height="50" relative="1" as="geometry">
            <mxPoint x="840" y="1200" as="sourcePoint" />
            <mxPoint x="840" y="1250" as="targetPoint" />
          </mxGeometry>
        </mxCell>
        <mxCell id="wuJ78tZV3x-SH6WrtWx3-49" value="concede" style="edgeLabel;html=1;align=center;verticalAlign=middle;resizable=0;points=[];" vertex="1" connectable="0" parent="wuJ78tZV3x-SH6WrtWx3-46">
          <mxGeometry x="-0.04" y="1" relative="1" as="geometry">
            <mxPoint as="offset" />
          </mxGeometry>
        </mxCell>
        <mxCell id="wuJ78tZV3x-SH6WrtWx3-50" value="You launch powerful attack" style="rounded=0;whiteSpace=wrap;html=1;" vertex="1" parent="1">
          <mxGeometry x="420" y="1250" width="120" height="60" as="geometry" />
        </mxCell>
        <mxCell id="wuJ78tZV3x-SH6WrtWx3-51" value="You try to block Elves attack" style="rounded=0;whiteSpace=wrap;html=1;" vertex="1" parent="1">
          <mxGeometry x="600" y="1250" width="120" height="60" as="geometry" />
        </mxCell>
        <mxCell id="wuJ78tZV3x-SH6WrtWx3-52" value="Elf leader: &quot;Will you take my attack?&quot;" style="rounded=0;whiteSpace=wrap;html=1;" vertex="1" parent="1">
          <mxGeometry x="780" y="1250" width="120" height="60" as="geometry" />
        </mxCell>
        <mxCell id="wuJ78tZV3x-SH6WrtWx3-53" value="" style="endArrow=none;html=1;rounded=0;" edge="1" parent="1">
          <mxGeometry width="50" height="50" relative="1" as="geometry">
            <mxPoint x="849" y="1340" as="sourcePoint" />
            <mxPoint x="849" y="1310" as="targetPoint" />
          </mxGeometry>
        </mxCell>
        <mxCell id="wuJ78tZV3x-SH6WrtWx3-55" value="" style="endArrow=none;html=1;rounded=0;" edge="1" parent="1">
          <mxGeometry width="50" height="50" relative="1" as="geometry">
            <mxPoint x="760" y="1340" as="sourcePoint" />
            <mxPoint x="920" y="1340" as="targetPoint" />
          </mxGeometry>
        </mxCell>
        <mxCell id="wuJ78tZV3x-SH6WrtWx3-56" value="" style="endArrow=classic;html=1;rounded=0;" edge="1" parent="1">
          <mxGeometry width="50" height="50" relative="1" as="geometry">
            <mxPoint x="760" y="1340" as="sourcePoint" />
            <mxPoint x="760" y="1400" as="targetPoint" />
          </mxGeometry>
        </mxCell>
        <mxCell id="wuJ78tZV3x-SH6WrtWx3-58" value="Yes" style="edgeLabel;html=1;align=center;verticalAlign=middle;resizable=0;points=[];" vertex="1" connectable="0" parent="wuJ78tZV3x-SH6WrtWx3-56">
          <mxGeometry x="-0.0667" relative="1" as="geometry">
            <mxPoint as="offset" />
          </mxGeometry>
        </mxCell>
        <mxCell id="wuJ78tZV3x-SH6WrtWx3-57" value="" style="endArrow=classic;html=1;rounded=0;" edge="1" parent="1">
          <mxGeometry width="50" height="50" relative="1" as="geometry">
            <mxPoint x="920" y="1340" as="sourcePoint" />
            <mxPoint x="920" y="1400" as="targetPoint" />
          </mxGeometry>
        </mxCell>
        <mxCell id="wuJ78tZV3x-SH6WrtWx3-59" value="No" style="edgeLabel;html=1;align=center;verticalAlign=middle;resizable=0;points=[];" vertex="1" connectable="0" parent="wuJ78tZV3x-SH6WrtWx3-57">
          <mxGeometry x="0.0667" y="1" relative="1" as="geometry">
            <mxPoint as="offset" />
          </mxGeometry>
        </mxCell>
        <mxCell id="wuJ78tZV3x-SH6WrtWx3-60" value="You&#39;ve fallen into his trap!" style="rounded=0;whiteSpace=wrap;html=1;" vertex="1" parent="1">
          <mxGeometry x="700" y="1400" width="120" height="60" as="geometry" />
        </mxCell>
        <mxCell id="wuJ78tZV3x-SH6WrtWx3-61" value="Good choice! He lets you go." style="rounded=0;whiteSpace=wrap;html=1;" vertex="1" parent="1">
          <mxGeometry x="860" y="1400" width="120" height="60" as="geometry" />
        </mxCell>
        <mxCell id="wuJ78tZV3x-SH6WrtWx3-62" value="" style="endArrow=none;html=1;rounded=0;" edge="1" parent="1">
          <mxGeometry width="50" height="50" relative="1" as="geometry">
            <mxPoint x="480" y="1520" as="sourcePoint" />
            <mxPoint x="479.5" y="1310" as="targetPoint" />
          </mxGeometry>
        </mxCell>
        <mxCell id="wuJ78tZV3x-SH6WrtWx3-63" value="" style="endArrow=none;html=1;rounded=0;" edge="1" parent="1">
          <mxGeometry width="50" height="50" relative="1" as="geometry">
            <mxPoint x="640" y="1520" as="sourcePoint" />
            <mxPoint x="640" y="1310" as="targetPoint" />
          </mxGeometry>
        </mxCell>
        <mxCell id="wuJ78tZV3x-SH6WrtWx3-64" value="" style="endArrow=none;html=1;rounded=0;" edge="1" parent="1">
          <mxGeometry width="50" height="50" relative="1" as="geometry">
            <mxPoint x="919.5" y="1520" as="sourcePoint" />
            <mxPoint x="919.5" y="1460" as="targetPoint" />
          </mxGeometry>
        </mxCell>
        <mxCell id="wuJ78tZV3x-SH6WrtWx3-65" value="" style="endArrow=none;html=1;rounded=0;" edge="1" parent="1">
          <mxGeometry width="50" height="50" relative="1" as="geometry">
            <mxPoint x="280" y="1520" as="sourcePoint" />
            <mxPoint x="920" y="1520" as="targetPoint" />
          </mxGeometry>
        </mxCell>
        <mxCell id="wuJ78tZV3x-SH6WrtWx3-66" value="" style="endArrow=none;html=1;rounded=0;" edge="1" parent="1">
          <mxGeometry width="50" height="50" relative="1" as="geometry">
            <mxPoint x="280" y="1521" as="sourcePoint" />
            <mxPoint x="280" y="1140" as="targetPoint" />
          </mxGeometry>
        </mxCell>
        <mxCell id="wuJ78tZV3x-SH6WrtWx3-67" value="You are attacked by bibbles" style="rounded=0;whiteSpace=wrap;html=1;" vertex="1" parent="1">
          <mxGeometry x="365" y="1560" width="120" height="60" as="geometry" />
        </mxCell>
        <mxCell id="wuJ78tZV3x-SH6WrtWx3-68" value="" style="endArrow=classic;html=1;rounded=0;" edge="1" parent="1">
          <mxGeometry width="50" height="50" relative="1" as="geometry">
            <mxPoint x="425" y="1520" as="sourcePoint" />
            <mxPoint x="425" y="1560" as="targetPoint" />
          </mxGeometry>
        </mxCell>
        <mxCell id="wuJ78tZV3x-SH6WrtWx3-69" value="" style="endArrow=classic;html=1;rounded=0;" edge="1" parent="1">
          <mxGeometry width="50" height="50" relative="1" as="geometry">
            <mxPoint x="425" y="1620" as="sourcePoint" />
            <mxPoint x="425" y="1680" as="targetPoint" />
          </mxGeometry>
        </mxCell>
        <mxCell id="wuJ78tZV3x-SH6WrtWx3-70" value="run or challenge?" style="rhombus;whiteSpace=wrap;html=1;" vertex="1" parent="1">
          <mxGeometry x="355" y="1680" width="140" height="80" as="geometry" />
        </mxCell>
        <mxCell id="wuJ78tZV3x-SH6WrtWx3-71" value="" style="endArrow=none;html=1;rounded=0;" edge="1" parent="1">
          <mxGeometry width="50" height="50" relative="1" as="geometry">
            <mxPoint x="495" y="1720" as="sourcePoint" />
            <mxPoint x="560" y="1720" as="targetPoint" />
          </mxGeometry>
        </mxCell>
        <mxCell id="wuJ78tZV3x-SH6WrtWx3-72" value="" style="endArrow=none;html=1;rounded=0;" edge="1" parent="1">
          <mxGeometry width="50" height="50" relative="1" as="geometry">
            <mxPoint x="290" y="1719.5" as="sourcePoint" />
            <mxPoint x="355" y="1719.5" as="targetPoint" />
          </mxGeometry>
        </mxCell>
        <mxCell id="wuJ78tZV3x-SH6WrtWx3-73" value="" style="endArrow=classic;html=1;rounded=0;" edge="1" parent="1">
          <mxGeometry width="50" height="50" relative="1" as="geometry">
            <mxPoint x="560" y="1720" as="sourcePoint" />
            <mxPoint x="560" y="1800" as="targetPoint" />
          </mxGeometry>
        </mxCell>
        <mxCell id="wuJ78tZV3x-SH6WrtWx3-78" value="challenge" style="edgeLabel;html=1;align=center;verticalAlign=middle;resizable=0;points=[];" vertex="1" connectable="0" parent="wuJ78tZV3x-SH6WrtWx3-73">
          <mxGeometry x="0.025" relative="1" as="geometry">
            <mxPoint as="offset" />
          </mxGeometry>
        </mxCell>
        <mxCell id="wuJ78tZV3x-SH6WrtWx3-74" value="" style="endArrow=classic;html=1;rounded=0;" edge="1" parent="1">
          <mxGeometry width="50" height="50" relative="1" as="geometry">
            <mxPoint x="290" y="1720" as="sourcePoint" />
            <mxPoint x="290" y="1800" as="targetPoint" />
          </mxGeometry>
        </mxCell>
        <mxCell id="wuJ78tZV3x-SH6WrtWx3-77" value="run" style="edgeLabel;html=1;align=center;verticalAlign=middle;resizable=0;points=[];" vertex="1" connectable="0" parent="wuJ78tZV3x-SH6WrtWx3-74">
          <mxGeometry x="-0.05" y="1" relative="1" as="geometry">
            <mxPoint as="offset" />
          </mxGeometry>
        </mxCell>
        <mxCell id="wuJ78tZV3x-SH6WrtWx3-75" value="You escape." style="rounded=0;whiteSpace=wrap;html=1;" vertex="1" parent="1">
          <mxGeometry x="230" y="1800" width="120" height="60" as="geometry" />
        </mxCell>
        <mxCell id="wuJ78tZV3x-SH6WrtWx3-76" value="You win." style="rounded=0;whiteSpace=wrap;html=1;" vertex="1" parent="1">
          <mxGeometry x="500" y="1800" width="120" height="60" as="geometry" />
        </mxCell>
        <mxCell id="wuJ78tZV3x-SH6WrtWx3-79" value="" style="endArrow=classic;html=1;rounded=0;" edge="1" parent="1">
          <mxGeometry width="50" height="50" relative="1" as="geometry">
            <mxPoint x="424" y="1920" as="sourcePoint" />
            <mxPoint x="424" y="1980" as="targetPoint" />
          </mxGeometry>
        </mxCell>
        <mxCell id="wuJ78tZV3x-SH6WrtWx3-81" value="" style="endArrow=none;html=1;rounded=0;" edge="1" parent="1">
          <mxGeometry width="50" height="50" relative="1" as="geometry">
            <mxPoint x="290" y="1920" as="sourcePoint" />
            <mxPoint x="290" y="1860" as="targetPoint" />
          </mxGeometry>
        </mxCell>
        <mxCell id="wuJ78tZV3x-SH6WrtWx3-82" value="" style="endArrow=none;html=1;rounded=0;" edge="1" parent="1">
          <mxGeometry width="50" height="50" relative="1" as="geometry">
            <mxPoint x="559.5" y="1920" as="sourcePoint" />
            <mxPoint x="559.5" y="1860" as="targetPoint" />
          </mxGeometry>
        </mxCell>
        <mxCell id="wuJ78tZV3x-SH6WrtWx3-83" value="" style="endArrow=none;html=1;rounded=0;" edge="1" parent="1">
          <mxGeometry width="50" height="50" relative="1" as="geometry">
            <mxPoint x="290" y="1920" as="sourcePoint" />
            <mxPoint x="560" y="1920" as="targetPoint" />
          </mxGeometry>
        </mxCell>
        <mxCell id="wuJ78tZV3x-SH6WrtWx3-84" value="You face Gollums." style="rounded=0;whiteSpace=wrap;html=1;" vertex="1" parent="1">
          <mxGeometry x="365" y="1980" width="120" height="60" as="geometry" />
        </mxCell>
        <mxCell id="wuJ78tZV3x-SH6WrtWx3-85" value="" style="endArrow=classic;html=1;rounded=0;" edge="1" parent="1">
          <mxGeometry width="50" height="50" relative="1" as="geometry">
            <mxPoint x="425" y="2040" as="sourcePoint" />
            <mxPoint x="425" y="2120" as="targetPoint" />
          </mxGeometry>
        </mxCell>
        <mxCell id="wuJ78tZV3x-SH6WrtWx3-87" value="Do you wish to fight?" style="rhombus;whiteSpace=wrap;html=1;" vertex="1" parent="1">
          <mxGeometry x="355" y="2120" width="140" height="80" as="geometry" />
        </mxCell>
        <mxCell id="wuJ78tZV3x-SH6WrtWx3-88" value="" style="endArrow=none;html=1;rounded=0;" edge="1" parent="1">
          <mxGeometry width="50" height="50" relative="1" as="geometry">
            <mxPoint x="495" y="2160" as="sourcePoint" />
            <mxPoint x="560" y="2160" as="targetPoint" />
          </mxGeometry>
        </mxCell>
        <mxCell id="wuJ78tZV3x-SH6WrtWx3-89" value="" style="endArrow=none;html=1;rounded=0;" edge="1" parent="1">
          <mxGeometry width="50" height="50" relative="1" as="geometry">
            <mxPoint x="290" y="2159.5" as="sourcePoint" />
            <mxPoint x="355" y="2159.5" as="targetPoint" />
          </mxGeometry>
        </mxCell>
        <mxCell id="wuJ78tZV3x-SH6WrtWx3-90" value="" style="endArrow=classic;html=1;rounded=0;" edge="1" parent="1">
          <mxGeometry width="50" height="50" relative="1" as="geometry">
            <mxPoint x="560" y="2160" as="sourcePoint" />
            <mxPoint x="560" y="2240" as="targetPoint" />
          </mxGeometry>
        </mxCell>
        <mxCell id="wuJ78tZV3x-SH6WrtWx3-95" value="yes" style="edgeLabel;html=1;align=center;verticalAlign=middle;resizable=0;points=[];" vertex="1" connectable="0" parent="wuJ78tZV3x-SH6WrtWx3-90">
          <mxGeometry x="0.025" relative="1" as="geometry">
            <mxPoint as="offset" />
          </mxGeometry>
        </mxCell>
        <mxCell id="wuJ78tZV3x-SH6WrtWx3-91" value="" style="endArrow=classic;html=1;rounded=0;" edge="1" parent="1">
          <mxGeometry width="50" height="50" relative="1" as="geometry">
            <mxPoint x="289.5" y="2160" as="sourcePoint" />
            <mxPoint x="289.5" y="2240" as="targetPoint" />
          </mxGeometry>
        </mxCell>
        <mxCell id="wuJ78tZV3x-SH6WrtWx3-94" value="no" style="edgeLabel;html=1;align=center;verticalAlign=middle;resizable=0;points=[];" vertex="1" connectable="0" parent="wuJ78tZV3x-SH6WrtWx3-91">
          <mxGeometry x="-0.025" y="1" relative="1" as="geometry">
            <mxPoint as="offset" />
          </mxGeometry>
        </mxCell>
        <mxCell id="wuJ78tZV3x-SH6WrtWx3-92" value="Gollum warns you, Do you want to continue?&amp;nbsp;" style="rounded=0;whiteSpace=wrap;html=1;" vertex="1" parent="1">
          <mxGeometry x="500" y="2240" width="120" height="60" as="geometry" />
        </mxCell>
        <mxCell id="wuJ78tZV3x-SH6WrtWx3-93" value="Gollum: You leave in peace." style="rounded=0;whiteSpace=wrap;html=1;" vertex="1" parent="1">
          <mxGeometry x="230" y="2240" width="120" height="60" as="geometry" />
        </mxCell>
        <mxCell id="wuJ78tZV3x-SH6WrtWx3-96" value="" style="endArrow=none;html=1;rounded=0;" edge="1" parent="1">
          <mxGeometry width="50" height="50" relative="1" as="geometry">
            <mxPoint x="560" y="2360" as="sourcePoint" />
            <mxPoint x="560" y="2300" as="targetPoint" />
          </mxGeometry>
        </mxCell>
        <mxCell id="wuJ78tZV3x-SH6WrtWx3-97" value="" style="endArrow=none;html=1;rounded=0;" edge="1" parent="1">
          <mxGeometry width="50" height="50" relative="1" as="geometry">
            <mxPoint x="440" y="2360" as="sourcePoint" />
            <mxPoint x="680" y="2360" as="targetPoint" />
          </mxGeometry>
        </mxCell>
        <mxCell id="wuJ78tZV3x-SH6WrtWx3-98" value="You&#39;re wise to hesitate!" style="rounded=0;whiteSpace=wrap;html=1;" vertex="1" parent="1">
          <mxGeometry x="380" y="2390" width="120" height="60" as="geometry" />
        </mxCell>
        <mxCell id="wuJ78tZV3x-SH6WrtWx3-99" value="One last chance, Do you want to fight?" style="rounded=0;whiteSpace=wrap;html=1;" vertex="1" parent="1">
          <mxGeometry x="620" y="2390" width="120" height="60" as="geometry" />
        </mxCell>
        <mxCell id="wuJ78tZV3x-SH6WrtWx3-100" value="" style="endArrow=classic;html=1;rounded=0;" edge="1" parent="1">
          <mxGeometry width="50" height="50" relative="1" as="geometry">
            <mxPoint x="440" y="2360" as="sourcePoint" />
            <mxPoint x="440" y="2390" as="targetPoint" />
          </mxGeometry>
        </mxCell>
        <mxCell id="wuJ78tZV3x-SH6WrtWx3-101" value="" style="endArrow=classic;html=1;rounded=0;" edge="1" parent="1">
          <mxGeometry width="50" height="50" relative="1" as="geometry">
            <mxPoint x="679.5" y="2360" as="sourcePoint" />
            <mxPoint x="679.5" y="2390" as="targetPoint" />
          </mxGeometry>
        </mxCell>
        <mxCell id="wuJ78tZV3x-SH6WrtWx3-102" value="" style="endArrow=none;html=1;rounded=0;" edge="1" parent="1">
          <mxGeometry width="50" height="50" relative="1" as="geometry">
            <mxPoint x="680" y="2480" as="sourcePoint" />
            <mxPoint x="680" y="2450" as="targetPoint" />
          </mxGeometry>
        </mxCell>
        <mxCell id="wuJ78tZV3x-SH6WrtWx3-103" value="" style="endArrow=none;html=1;rounded=0;" edge="1" parent="1">
          <mxGeometry width="50" height="50" relative="1" as="geometry">
            <mxPoint x="560" y="2480" as="sourcePoint" />
            <mxPoint x="800" y="2480" as="targetPoint" />
          </mxGeometry>
        </mxCell>
        <mxCell id="wuJ78tZV3x-SH6WrtWx3-104" value="" style="endArrow=classic;html=1;rounded=0;" edge="1" parent="1">
          <mxGeometry width="50" height="50" relative="1" as="geometry">
            <mxPoint x="559.5" y="2480" as="sourcePoint" />
            <mxPoint x="559.5" y="2540" as="targetPoint" />
          </mxGeometry>
        </mxCell>
        <mxCell id="wuJ78tZV3x-SH6WrtWx3-108" value="yes" style="edgeLabel;html=1;align=center;verticalAlign=middle;resizable=0;points=[];" vertex="1" connectable="0" parent="wuJ78tZV3x-SH6WrtWx3-104">
          <mxGeometry x="0.0667" y="2" relative="1" as="geometry">
            <mxPoint as="offset" />
          </mxGeometry>
        </mxCell>
        <mxCell id="wuJ78tZV3x-SH6WrtWx3-105" value="" style="endArrow=classic;html=1;rounded=0;" edge="1" parent="1">
          <mxGeometry width="50" height="50" relative="1" as="geometry">
            <mxPoint x="800" y="2480" as="sourcePoint" />
            <mxPoint x="800" y="2540" as="targetPoint" />
          </mxGeometry>
        </mxCell>
        <mxCell id="wuJ78tZV3x-SH6WrtWx3-109" value="no" style="edgeLabel;html=1;align=center;verticalAlign=middle;resizable=0;points=[];" vertex="1" connectable="0" parent="wuJ78tZV3x-SH6WrtWx3-105">
          <mxGeometry x="0.0333" y="-1" relative="1" as="geometry">
            <mxPoint as="offset" />
          </mxGeometry>
        </mxCell>
        <mxCell id="wuJ78tZV3x-SH6WrtWx3-106" value="You are trapped!" style="rounded=0;whiteSpace=wrap;html=1;" vertex="1" parent="1">
          <mxGeometry x="510" y="2540" width="120" height="60" as="geometry" />
        </mxCell>
        <mxCell id="wuJ78tZV3x-SH6WrtWx3-107" value="Good choice! Lets fight. Choose your move." style="rounded=0;whiteSpace=wrap;html=1;" vertex="1" parent="1">
          <mxGeometry x="740" y="2540" width="120" height="60" as="geometry" />
        </mxCell>
        <mxCell id="wuJ78tZV3x-SH6WrtWx3-110" value="" style="endArrow=none;html=1;rounded=0;" edge="1" parent="1">
          <mxGeometry width="50" height="50" relative="1" as="geometry">
            <mxPoint x="800" y="2640" as="sourcePoint" />
            <mxPoint x="800" y="2600" as="targetPoint" />
          </mxGeometry>
        </mxCell>
        <mxCell id="wuJ78tZV3x-SH6WrtWx3-111" value="" style="endArrow=none;html=1;rounded=0;" edge="1" parent="1">
          <mxGeometry width="50" height="50" relative="1" as="geometry">
            <mxPoint x="680" y="2640" as="sourcePoint" />
            <mxPoint x="1080" y="2640" as="targetPoint" />
          </mxGeometry>
        </mxCell>
        <mxCell id="wuJ78tZV3x-SH6WrtWx3-112" value="" style="endArrow=classic;html=1;rounded=0;" edge="1" parent="1">
          <mxGeometry width="50" height="50" relative="1" as="geometry">
            <mxPoint x="679.5" y="2640" as="sourcePoint" />
            <mxPoint x="679.5" y="2680" as="targetPoint" />
          </mxGeometry>
        </mxCell>
        <mxCell id="wuJ78tZV3x-SH6WrtWx3-118" value="attack" style="edgeLabel;html=1;align=center;verticalAlign=middle;resizable=0;points=[];" vertex="1" connectable="0" parent="wuJ78tZV3x-SH6WrtWx3-112">
          <mxGeometry x="0.05" relative="1" as="geometry">
            <mxPoint as="offset" />
          </mxGeometry>
        </mxCell>
        <mxCell id="wuJ78tZV3x-SH6WrtWx3-113" value="" style="endArrow=classic;html=1;rounded=0;" edge="1" parent="1">
          <mxGeometry width="50" height="50" relative="1" as="geometry">
            <mxPoint x="880" y="2640" as="sourcePoint" />
            <mxPoint x="880" y="2680" as="targetPoint" />
          </mxGeometry>
        </mxCell>
        <mxCell id="wuJ78tZV3x-SH6WrtWx3-119" value="defend" style="edgeLabel;html=1;align=center;verticalAlign=middle;resizable=0;points=[];" vertex="1" connectable="0" parent="wuJ78tZV3x-SH6WrtWx3-113">
          <mxGeometry x="-0.05" y="3" relative="1" as="geometry">
            <mxPoint as="offset" />
          </mxGeometry>
        </mxCell>
        <mxCell id="wuJ78tZV3x-SH6WrtWx3-114" value="" style="endArrow=classic;html=1;rounded=0;" edge="1" parent="1">
          <mxGeometry width="50" height="50" relative="1" as="geometry">
            <mxPoint x="1080" y="2640" as="sourcePoint" />
            <mxPoint x="1080" y="2680" as="targetPoint" />
          </mxGeometry>
        </mxCell>
        <mxCell id="wuJ78tZV3x-SH6WrtWx3-120" value="run" style="edgeLabel;html=1;align=center;verticalAlign=middle;resizable=0;points=[];" vertex="1" connectable="0" parent="wuJ78tZV3x-SH6WrtWx3-114">
          <mxGeometry x="0.1" y="1" relative="1" as="geometry">
            <mxPoint as="offset" />
          </mxGeometry>
        </mxCell>
        <mxCell id="wuJ78tZV3x-SH6WrtWx3-115" value="You launch a powerful attack" style="rounded=0;whiteSpace=wrap;html=1;" vertex="1" parent="1">
          <mxGeometry x="620" y="2680" width="120" height="60" as="geometry" />
        </mxCell>
        <mxCell id="wuJ78tZV3x-SH6WrtWx3-116" value="You defend against their attack" style="rounded=0;whiteSpace=wrap;html=1;" vertex="1" parent="1">
          <mxGeometry x="820" y="2680" width="120" height="60" as="geometry" />
        </mxCell>
        <mxCell id="wuJ78tZV3x-SH6WrtWx3-117" value="You run but you are getting chased" style="rounded=0;whiteSpace=wrap;html=1;" vertex="1" parent="1">
          <mxGeometry x="1020" y="2680" width="120" height="60" as="geometry" />
        </mxCell>
        <mxCell id="wuJ78tZV3x-SH6WrtWx3-122" value="" style="endArrow=none;html=1;rounded=0;" edge="1" parent="1">
          <mxGeometry width="50" height="50" relative="1" as="geometry">
            <mxPoint x="679.5" y="2790" as="sourcePoint" />
            <mxPoint x="679.5" y="2740" as="targetPoint" />
          </mxGeometry>
        </mxCell>
        <mxCell id="wuJ78tZV3x-SH6WrtWx3-123" value="" style="endArrow=none;html=1;rounded=0;" edge="1" parent="1">
          <mxGeometry width="50" height="50" relative="1" as="geometry">
            <mxPoint x="879.5" y="2790" as="sourcePoint" />
            <mxPoint x="879.5" y="2740" as="targetPoint" />
          </mxGeometry>
        </mxCell>
        <mxCell id="wuJ78tZV3x-SH6WrtWx3-124" value="" style="endArrow=none;html=1;rounded=0;" edge="1" parent="1">
          <mxGeometry width="50" height="50" relative="1" as="geometry">
            <mxPoint x="1079.5" y="2790" as="sourcePoint" />
            <mxPoint x="1079.5" y="2740" as="targetPoint" />
          </mxGeometry>
        </mxCell>
        <mxCell id="wuJ78tZV3x-SH6WrtWx3-125" value="" style="endArrow=none;html=1;rounded=0;" edge="1" parent="1">
          <mxGeometry width="50" height="50" relative="1" as="geometry">
            <mxPoint x="680" y="2790" as="sourcePoint" />
            <mxPoint x="1080" y="2790" as="targetPoint" />
          </mxGeometry>
        </mxCell>
        <mxCell id="wuJ78tZV3x-SH6WrtWx3-126" value="" style="endArrow=none;html=1;rounded=0;" edge="1" parent="1">
          <mxGeometry width="50" height="50" relative="1" as="geometry">
            <mxPoint x="560" y="2680" as="sourcePoint" />
            <mxPoint x="560" y="2600" as="targetPoint" />
          </mxGeometry>
        </mxCell>
        <mxCell id="wuJ78tZV3x-SH6WrtWx3-127" value="" style="endArrow=none;html=1;rounded=0;" edge="1" parent="1">
          <mxGeometry width="50" height="50" relative="1" as="geometry">
            <mxPoint x="440" y="2680" as="sourcePoint" />
            <mxPoint x="440" y="2450" as="targetPoint" />
          </mxGeometry>
        </mxCell>
        <mxCell id="wuJ78tZV3x-SH6WrtWx3-128" value="" style="endArrow=none;html=1;rounded=0;" edge="1" parent="1">
          <mxGeometry width="50" height="50" relative="1" as="geometry">
            <mxPoint x="290" y="2680" as="sourcePoint" />
            <mxPoint x="289.5" y="2305" as="targetPoint" />
          </mxGeometry>
        </mxCell>
        <mxCell id="wuJ78tZV3x-SH6WrtWx3-129" value="" style="endArrow=none;html=1;rounded=0;" edge="1" parent="1">
          <mxGeometry width="50" height="50" relative="1" as="geometry">
            <mxPoint x="290" y="2680" as="sourcePoint" />
            <mxPoint x="560" y="2680" as="targetPoint" />
          </mxGeometry>
        </mxCell>
        <mxCell id="wuJ78tZV3x-SH6WrtWx3-130" value="" style="endArrow=classic;html=1;rounded=0;" edge="1" parent="1">
          <mxGeometry width="50" height="50" relative="1" as="geometry">
            <mxPoint x="439.5" y="2680" as="sourcePoint" />
            <mxPoint x="439.5" y="2730" as="targetPoint" />
          </mxGeometry>
        </mxCell>
        <mxCell id="wuJ78tZV3x-SH6WrtWx3-131" value="You Die" style="ellipse;whiteSpace=wrap;html=1;" vertex="1" parent="1">
          <mxGeometry x="380" y="2730" width="120" height="80" as="geometry" />
        </mxCell>
        <mxCell id="wuJ78tZV3x-SH6WrtWx3-132" value="" style="endArrow=none;html=1;rounded=0;" edge="1" parent="1">
          <mxGeometry width="50" height="50" relative="1" as="geometry">
            <mxPoint x="880" y="2880" as="sourcePoint" />
            <mxPoint x="880" y="2790" as="targetPoint" />
          </mxGeometry>
        </mxCell>
        <mxCell id="wuJ78tZV3x-SH6WrtWx3-133" value="" style="endArrow=none;html=1;rounded=0;" edge="1" parent="1">
          <mxGeometry width="50" height="50" relative="1" as="geometry">
            <mxPoint x="425" y="2880" as="sourcePoint" />
            <mxPoint x="880" y="2880" as="targetPoint" />
          </mxGeometry>
        </mxCell>
        <mxCell id="wuJ78tZV3x-SH6WrtWx3-135" value="" style="endArrow=classic;html=1;rounded=0;" edge="1" parent="1">
          <mxGeometry width="50" height="50" relative="1" as="geometry">
            <mxPoint x="425" y="2880" as="sourcePoint" />
            <mxPoint x="425" y="2970" as="targetPoint" />
          </mxGeometry>
        </mxCell>
        <mxCell id="wuJ78tZV3x-SH6WrtWx3-136" value="You face Armen" style="rounded=0;whiteSpace=wrap;html=1;" vertex="1" parent="1">
          <mxGeometry x="365" y="2970" width="120" height="60" as="geometry" />
        </mxCell>
        <mxCell id="wuJ78tZV3x-SH6WrtWx3-137" value="" style="endArrow=classic;html=1;rounded=0;" edge="1" parent="1">
          <mxGeometry width="50" height="50" relative="1" as="geometry">
            <mxPoint x="424" y="3030" as="sourcePoint" />
            <mxPoint x="424" y="3080" as="targetPoint" />
          </mxGeometry>
        </mxCell>
        <mxCell id="wuJ78tZV3x-SH6WrtWx3-139" value="Conclusion" style="shape=parallelogram;perimeter=parallelogramPerimeter;whiteSpace=wrap;html=1;fixedSize=1;" vertex="1" parent="1">
          <mxGeometry x="365" y="3080" width="120" height="60" as="geometry" />
        </mxCell>
        <mxCell id="wuJ78tZV3x-SH6WrtWx3-140" value="" style="endArrow=classic;html=1;rounded=0;" edge="1" parent="1">
          <mxGeometry width="50" height="50" relative="1" as="geometry">
            <mxPoint x="424" y="3140" as="sourcePoint" />
            <mxPoint x="424" y="3190" as="targetPoint" />
          </mxGeometry>
        </mxCell>
        <mxCell id="wuJ78tZV3x-SH6WrtWx3-142" value="Display player stats." style="shape=parallelogram;perimeter=parallelogramPerimeter;whiteSpace=wrap;html=1;fixedSize=1;" vertex="1" parent="1">
          <mxGeometry x="355" y="3190" width="135" height="60" as="geometry" />
        </mxCell>
        <mxCell id="wuJ78tZV3x-SH6WrtWx3-143" value="" style="endArrow=classic;html=1;rounded=0;" edge="1" parent="1">
          <mxGeometry width="50" height="50" relative="1" as="geometry">
            <mxPoint x="425" y="3250" as="sourcePoint" />
            <mxPoint x="425" y="3320" as="targetPoint" />
          </mxGeometry>
        </mxCell>
        <mxCell id="wuJ78tZV3x-SH6WrtWx3-144" value="END" style="ellipse;whiteSpace=wrap;html=1;" vertex="1" parent="1">
          <mxGeometry x="365" y="3320" width="120" height="80" as="geometry" />
        </mxCell>
      </root>
    </mxGraphModel>
  </diagram>
</mxfile>
